<?xml version="1.0" standalone="no"?>
<!DOCTYPE svg PUBLIC "-//W3C//DTD SVG 20010904//EN"
 "http://www.w3.org/TR/2001/REC-SVG-20010904/DTD/svg10.dtd">
<svg version="1.0" xmlns="http://www.w3.org/2000/svg"
 width="832.000000pt" height="832.000000pt" viewBox="0 0 832.000000 832.000000"
 preserveAspectRatio="xMidYMid meet">
<metadata>
Created by potrace 1.11, written by Peter Selinger 2001-2013
</metadata>
<g transform="translate(0.000000,832.000000) scale(0.100000,-0.100000)"
fill="#000000" stroke="none">
<path d="M3545 7183 c-58 -12 -156 -61 -682 -344 -462 -247 -588 -311 -646
-324 -239 -58 -586 -186 -832 -307 -669 -331 -1143 -814 -1316 -1341 -22 -65
-37 -122 -34 -127 3 -5 164 -117 358 -250 193 -133 354 -244 356 -246 2 -1
-118 -132 -265 -291 -148 -158 -275 -295 -282 -304 -11 -14 -7 -26 22 -76 87
-149 261 -360 398 -484 245 -221 452 -361 763 -514 561 -276 1100 -410 1797
-447 256 -13 481 -4 840 34 l206 22 67 -60 c334 -296 601 -488 924 -665 126
-68 403 -200 409 -194 1 1 -33 74 -75 161 -43 87 -100 216 -126 287 -42 114
-222 726 -215 732 2 2 107 63 233 135 127 73 268 157 315 187 474 307 815 704
961 1122 17 51 35 88 39 84 4 -4 272 -334 595 -733 323 -399 602 -740 619
-759 118 -128 215 -120 245 19 15 72 15 3528 0 3600 -15 69 -50 110 -95 110
-48 0 -81 -19 -139 -82 -28 -29 -309 -372 -625 -761 l-575 -708 -12 53 c-85
357 -256 643 -564 944 -215 210 -461 382 -764 534 -515 259 -1062 408 -1672
456 l-83 6 0 235 c0 149 -4 242 -11 255 -18 34 -79 53 -134 41z m-1235 -2724
c114 -60 171 -156 171 -284 0 -129 -66 -237 -179 -292 -49 -24 -69 -28 -142
-28 -78 0 -91 3 -148 35 -111 59 -172 161 -172 284 0 245 255 400 470 285z
m1282 9 c67 -31 119 -82 155 -151 24 -46 28 -63 28 -142 0 -75 -4 -98 -25
-140 -31 -63 -85 -117 -152 -152 -71 -36 -198 -40 -270 -6 -70 32 -131 94
-164 166 -83 183 21 397 220 448 54 14 150 3 208 -23z m1293 3 c62 -28 130
-94 162 -160 36 -73 39 -190 6 -263 -30 -66 -95 -133 -162 -165 -75 -37 -190
-39 -267 -5 -64 29 -136 102 -166 167 -32 70 -32 190 0 260 39 86 121 156 212
182 58 17 158 9 215 -16z"/>
</g>
</svg>
