<?xml version="1.0" encoding="UTF-8" standalone="no"?>
<svg width="52px" height="38px" viewBox="0 0 52 38" version="1.1" xmlns="http://www.w3.org/2000/svg" xmlns:xlink="http://www.w3.org/1999/xlink">
    <!-- Generator: Sketch 41.2 (35397) - http://www.bohemiancoding.com/sketch -->
    <title>Widget graphic</title>
    <desc>Created with Sketch.</desc>
    <defs></defs>
    <g id="Marketing-Site" stroke="none" stroke-width="1" fill="none" fill-rule="evenodd">
        <g id="Marketing-Site-v1-Copy-2" transform="translate(-24.000000, -14.000000)">
            <g id="Widget-graphic" transform="translate(24.000000, 14.000000)">
                <g id="Fish">
                    <path d="M0.185771813,15.3826886 C0.58583863,13.6658603 1.46932568,12.0368089 2.83624321,10.4955094 C4.76877707,8.31643612 7.37627169,6.58520683 10.6588053,5.3017696 C11.8531949,4.83477542 13.0800189,4.45274326 14.3392825,4.15567219 L21.3604397,0.391038763 C22.3046751,-0.115245324 23.0675761,0.00293159015 23.0675761,0.653305651 L23.0675761,3.42782048 C26.1580555,3.60298548 29.0768782,4.22763142 31.8241062,5.3017696 C35.1066398,6.58520683 37.7141344,8.31643612 39.6466682,10.4955094 C41.1468228,12.1870434 42.0647114,13.9842699 42.4003476,15.8872218 L49.7240761,6.87590397 C50.6683115,5.71409066 51.4312124,5.98528131 51.4312124,7.47775019 L51.4312124,18.3303955 L51.4312124,28.7665155 C51.4312124,30.2609742 50.6669015,30.5334977 49.7240761,29.3734193 L42.2890593,20.2251694 C42.257525,20.1863687 42.2270455,20.1467681 42.1976205,20.1064208 C41.8757811,21.2613412 41.3306004,22.3835084 40.5620744,23.472934 C39.2398144,25.3473063 37.3766578,26.9677369 34.9725487,28.3342744 L32.5592051,29.7192717 L33.3081738,32.3784665 C33.7520093,34.0589383 34.3992598,35.6470526 35.2499445,37.1428571 C32.4389862,35.9794536 29.8962166,34.4005725 27.6215595,32.4061664 L26.4287575,31.3535685 L24.8476014,31.5197682 C23.5715742,31.667502 22.3695377,31.7413677 21.2414557,31.7413677 C17.4688537,31.7413677 13.9413389,31.0996587 10.6588053,29.8162215 C7.37627169,28.5327843 4.76877707,26.801555 2.83624321,24.6224817 C2.16197612,23.8621962 1.60533774,23.0805589 1.16632684,22.2775667 L4.69557652,18.4857631 L0.185771813,15.3826886 Z" id="Combined-Shape" fill="#F09C58"></path>
                    <g id="Dots" transform="translate(11.480519, 16.883117)" fill="#FFFFFF">
                        <ellipse id="Oval" cx="2.02597403" cy="2.02597403" rx="2.02597403" ry="2.02597403"></ellipse>
                        <ellipse id="Oval-Copy" cx="10.1298701" cy="2.02597403" rx="2.02597403" ry="2.02597403"></ellipse>
                        <ellipse id="Oval-Copy-2" cx="18.2337662" cy="2.02597403" rx="2.02597403" ry="2.02597403"></ellipse>
                    </g>
                </g>
            </g>
        </g>
    </g>
</svg>