<?xml version="1.0" encoding="UTF-8" standalone="no"?>
<svg width="397px" height="252px" viewBox="0 0 397 252" version="1.1" xmlns="http://www.w3.org/2000/svg" xmlns:xlink="http://www.w3.org/1999/xlink">
    <!-- Generator: Sketch 41.2 (35397) - http://www.bohemiancoding.com/sketch -->
    <title>Widget graphic</title>
    <desc>Created with Sketch.</desc>
    <defs>
        <linearGradient x1="50%" y1="0%" x2="50%" y2="99.0214445%" id="linearGradient-1">
            <stop stop-color="#000000" stop-opacity="0" offset="0%"></stop>
            <stop stop-color="#000000" stop-opacity="0.02" offset="80%"></stop>
            <stop stop-color="#000000" stop-opacity="0.04" offset="100%"></stop>
        </linearGradient>
        <linearGradient x1="50%" y1="0%" x2="50%" y2="100%" id="linearGradient-2">
            <stop stop-color="#FFFFFF" stop-opacity="0.12" offset="0%"></stop>
            <stop stop-color="#FFFFFF" stop-opacity="0.06" offset="20%"></stop>
            <stop stop-color="#FFFFFF" stop-opacity="0" offset="100%"></stop>
        </linearGradient>
        <circle id="path-3" cx="18" cy="18" r="18"></circle>
        <filter x="-50%" y="-50%" width="200%" height="200%" filterUnits="objectBoundingBox" id="filter-4">
            <feOffset dx="0" dy="6" in="SourceAlpha" result="shadowOffsetOuter1"></feOffset>
            <feGaussianBlur stdDeviation="3" in="shadowOffsetOuter1" result="shadowBlurOuter1"></feGaussianBlur>
            <feComposite in="shadowBlurOuter1" in2="SourceAlpha" operator="out" result="shadowBlurOuter1"></feComposite>
            <feColorMatrix values="0 0 0 0 0   0 0 0 0 0   0 0 0 0 0  0 0 0 0.24 0" type="matrix" in="shadowBlurOuter1" result="shadowMatrixOuter1"></feColorMatrix>
            <feOffset dx="0" dy="0" in="SourceAlpha" result="shadowOffsetOuter2"></feOffset>
            <feGaussianBlur stdDeviation="3" in="shadowOffsetOuter2" result="shadowBlurOuter2"></feGaussianBlur>
            <feComposite in="shadowBlurOuter2" in2="SourceAlpha" operator="out" result="shadowBlurOuter2"></feComposite>
            <feColorMatrix values="0 0 0 0 0   0 0 0 0 0   0 0 0 0 0  0 0 0 0.12 0" type="matrix" in="shadowBlurOuter2" result="shadowMatrixOuter2"></feColorMatrix>
            <feMerge>
                <feMergeNode in="shadowMatrixOuter1"></feMergeNode>
                <feMergeNode in="shadowMatrixOuter2"></feMergeNode>
            </feMerge>
        </filter>
        <mask id="mask-5" maskContentUnits="userSpaceOnUse" maskUnits="objectBoundingBox" x="0" y="0" width="36" height="36" fill="white">
            <use xlink:href="#path-3"></use>
        </mask>
        <mask id="mask-6" maskContentUnits="userSpaceOnUse" maskUnits="objectBoundingBox" x="0" y="0" width="36" height="36" fill="white">
            <use xlink:href="#path-3"></use>
        </mask>
        <circle id="path-7" cx="18" cy="18" r="18"></circle>
        <filter x="-50%" y="-50%" width="200%" height="200%" filterUnits="objectBoundingBox" id="filter-8">
            <feOffset dx="0" dy="6" in="SourceAlpha" result="shadowOffsetOuter1"></feOffset>
            <feGaussianBlur stdDeviation="3" in="shadowOffsetOuter1" result="shadowBlurOuter1"></feGaussianBlur>
            <feComposite in="shadowBlurOuter1" in2="SourceAlpha" operator="out" result="shadowBlurOuter1"></feComposite>
            <feColorMatrix values="0 0 0 0 0   0 0 0 0 0   0 0 0 0 0  0 0 0 0.24 0" type="matrix" in="shadowBlurOuter1" result="shadowMatrixOuter1"></feColorMatrix>
            <feOffset dx="0" dy="0" in="SourceAlpha" result="shadowOffsetOuter2"></feOffset>
            <feGaussianBlur stdDeviation="3" in="shadowOffsetOuter2" result="shadowBlurOuter2"></feGaussianBlur>
            <feComposite in="shadowBlurOuter2" in2="SourceAlpha" operator="out" result="shadowBlurOuter2"></feComposite>
            <feColorMatrix values="0 0 0 0 0   0 0 0 0 0   0 0 0 0 0  0 0 0 0.12 0" type="matrix" in="shadowBlurOuter2" result="shadowMatrixOuter2"></feColorMatrix>
            <feMerge>
                <feMergeNode in="shadowMatrixOuter1"></feMergeNode>
                <feMergeNode in="shadowMatrixOuter2"></feMergeNode>
            </feMerge>
        </filter>
        <mask id="mask-9" maskContentUnits="userSpaceOnUse" maskUnits="objectBoundingBox" x="0" y="0" width="36" height="36" fill="white">
            <use xlink:href="#path-7"></use>
        </mask>
        <mask id="mask-10" maskContentUnits="userSpaceOnUse" maskUnits="objectBoundingBox" x="0" y="0" width="36" height="36" fill="white">
            <use xlink:href="#path-7"></use>
        </mask>
        <circle id="path-11" cx="18" cy="18" r="18"></circle>
        <filter x="-50%" y="-50%" width="200%" height="200%" filterUnits="objectBoundingBox" id="filter-12">
            <feOffset dx="0" dy="6" in="SourceAlpha" result="shadowOffsetOuter1"></feOffset>
            <feGaussianBlur stdDeviation="3" in="shadowOffsetOuter1" result="shadowBlurOuter1"></feGaussianBlur>
            <feComposite in="shadowBlurOuter1" in2="SourceAlpha" operator="out" result="shadowBlurOuter1"></feComposite>
            <feColorMatrix values="0 0 0 0 0   0 0 0 0 0   0 0 0 0 0  0 0 0 0.24 0" type="matrix" in="shadowBlurOuter1" result="shadowMatrixOuter1"></feColorMatrix>
            <feOffset dx="0" dy="0" in="SourceAlpha" result="shadowOffsetOuter2"></feOffset>
            <feGaussianBlur stdDeviation="3" in="shadowOffsetOuter2" result="shadowBlurOuter2"></feGaussianBlur>
            <feComposite in="shadowBlurOuter2" in2="SourceAlpha" operator="out" result="shadowBlurOuter2"></feComposite>
            <feColorMatrix values="0 0 0 0 0   0 0 0 0 0   0 0 0 0 0  0 0 0 0.12 0" type="matrix" in="shadowBlurOuter2" result="shadowMatrixOuter2"></feColorMatrix>
            <feMerge>
                <feMergeNode in="shadowMatrixOuter1"></feMergeNode>
                <feMergeNode in="shadowMatrixOuter2"></feMergeNode>
            </feMerge>
        </filter>
        <mask id="mask-13" maskContentUnits="userSpaceOnUse" maskUnits="objectBoundingBox" x="0" y="0" width="36" height="36" fill="white">
            <use xlink:href="#path-11"></use>
        </mask>
        <mask id="mask-14" maskContentUnits="userSpaceOnUse" maskUnits="objectBoundingBox" x="0" y="0" width="36" height="36" fill="white">
            <use xlink:href="#path-11"></use>
        </mask>
        <circle id="path-15" cx="18" cy="18" r="18"></circle>
        <filter x="-50%" y="-50%" width="200%" height="200%" filterUnits="objectBoundingBox" id="filter-16">
            <feOffset dx="0" dy="6" in="SourceAlpha" result="shadowOffsetOuter1"></feOffset>
            <feGaussianBlur stdDeviation="3" in="shadowOffsetOuter1" result="shadowBlurOuter1"></feGaussianBlur>
            <feComposite in="shadowBlurOuter1" in2="SourceAlpha" operator="out" result="shadowBlurOuter1"></feComposite>
            <feColorMatrix values="0 0 0 0 0   0 0 0 0 0   0 0 0 0 0  0 0 0 0.24 0" type="matrix" in="shadowBlurOuter1" result="shadowMatrixOuter1"></feColorMatrix>
            <feOffset dx="0" dy="0" in="SourceAlpha" result="shadowOffsetOuter2"></feOffset>
            <feGaussianBlur stdDeviation="3" in="shadowOffsetOuter2" result="shadowBlurOuter2"></feGaussianBlur>
            <feComposite in="shadowBlurOuter2" in2="SourceAlpha" operator="out" result="shadowBlurOuter2"></feComposite>
            <feColorMatrix values="0 0 0 0 0   0 0 0 0 0   0 0 0 0 0  0 0 0 0.12 0" type="matrix" in="shadowBlurOuter2" result="shadowMatrixOuter2"></feColorMatrix>
            <feMerge>
                <feMergeNode in="shadowMatrixOuter1"></feMergeNode>
                <feMergeNode in="shadowMatrixOuter2"></feMergeNode>
            </feMerge>
        </filter>
        <mask id="mask-17" maskContentUnits="userSpaceOnUse" maskUnits="objectBoundingBox" x="0" y="0" width="36" height="36" fill="white">
            <use xlink:href="#path-15"></use>
        </mask>
        <mask id="mask-18" maskContentUnits="userSpaceOnUse" maskUnits="objectBoundingBox" x="0" y="0" width="36" height="36" fill="white">
            <use xlink:href="#path-15"></use>
        </mask>
        <filter x="-50%" y="-50%" width="200%" height="200%" filterUnits="objectBoundingBox" id="filter-19">
            <feOffset dx="0" dy="2" in="SourceAlpha" result="shadowOffsetOuter1"></feOffset>
            <feGaussianBlur stdDeviation="1" in="shadowOffsetOuter1" result="shadowBlurOuter1"></feGaussianBlur>
            <feColorMatrix values="0 0 0 0 0   0 0 0 0 0   0 0 0 0 0  0 0 0 0.25 0" type="matrix" in="shadowBlurOuter1" result="shadowMatrixOuter1"></feColorMatrix>
            <feMerge>
                <feMergeNode in="shadowMatrixOuter1"></feMergeNode>
                <feMergeNode in="SourceGraphic"></feMergeNode>
            </feMerge>
        </filter>
        <path d="M51,95 C79.1665222,95 102,72.1665222 102,44 C102,25.9398371 92.6125219,10.0722371 78.4508913,1.0105258 L23.7072124,0.909767497 C9.45738979,9.9543153 0,25.8727118 0,44 C0,72.1665222 22.8334778,95 51,95 Z" id="path-20"></path>
        <mask id="mask-21" maskContentUnits="userSpaceOnUse" maskUnits="objectBoundingBox" x="0" y="0" width="102" height="94.0902325" fill="white">
            <use xlink:href="#path-20"></use>
        </mask>
        <filter x="-50%" y="-50%" width="200%" height="200%" filterUnits="objectBoundingBox" id="filter-22">
            <feOffset dx="0" dy="2" in="SourceAlpha" result="shadowOffsetOuter1"></feOffset>
            <feGaussianBlur stdDeviation="2" in="shadowOffsetOuter1" result="shadowBlurOuter1"></feGaussianBlur>
            <feColorMatrix values="0 0 0 0 0   0 0 0 0 0   0 0 0 0 0  0 0 0 0.25 0" type="matrix" in="shadowBlurOuter1" result="shadowMatrixOuter1"></feColorMatrix>
            <feMerge>
                <feMergeNode in="shadowMatrixOuter1"></feMergeNode>
                <feMergeNode in="SourceGraphic"></feMergeNode>
            </feMerge>
        </filter>
        <linearGradient x1="42.229316%" y1="50%" x2="50%" y2="100%" id="linearGradient-23">
            <stop stop-color="#F7AE72" offset="0%"></stop>
            <stop stop-color="#F78B33" offset="100%"></stop>
        </linearGradient>
    </defs>
    <g id="Marketing-Site" stroke="none" stroke-width="1" fill="none" fill-rule="evenodd">
        <g id="Marketing-Site-v1-Copy-2" transform="translate(-506.000000, -106.000000)">
            <g id="Hero" transform="translate(0.000000, 54.000000)">
                <g id="Widget-graphic" transform="translate(512.000000, 58.000000)">
                    <g id="Icons">
                        <g id="Options">
                            <g id="Heart" transform="translate(335.746269, 147.477612)">
                                <g id="fab-copy">
                                    <g>
                                        <g id="button-bg">
                                            <use fill="black" fill-opacity="1" filter="url(#filter-4)" xlink:href="#path-3"></use>
                                            <use stroke="url(#linearGradient-1)" mask="url(#mask-5)" stroke-width="1" fill="#FFFFFF" fill-rule="evenodd" xlink:href="#path-3"></use>
                                            <use stroke="url(#linearGradient-2)" mask="url(#mask-6)" stroke-width="1" xlink:href="#path-3"></use>
                                        </g>
                                        <path d="M18,27.2857143 C17.825892,27.2857143 17.678572,27.225447 17.5580357,27.1049107 L11.2901786,21.0580357 C11.223214,21.004464 11.131139,20.9174113 11.0139509,20.796875 C10.8967628,20.6763387 10.7109388,20.4570328 10.4564732,20.1389509 C10.2020077,19.8208689 9.97433136,19.4944213 9.7734375,19.1595982 C9.57254364,18.8247751 9.39341597,18.4196452 9.23604911,17.9441964 C9.07868225,17.4687476 9,17.0066987 9,16.5580357 C9,15.0848141 9.42521896,13.9330399 10.2756696,13.1026786 C11.1261203,12.2723173 12.3013318,11.8571429 13.8013393,11.8571429 C14.2165199,11.8571429 14.6400648,11.9291287 15.0719866,12.0731027 C15.5039084,12.2170766 15.9056901,12.4112711 16.2773438,12.655692 C16.6489974,12.9001128 16.9687487,13.1294632 17.2366071,13.34375 C17.5044656,13.5580368 17.7589274,13.7857131 18,14.0267857 C18.2410726,13.7857131 18.4955344,13.5580368 18.7633929,13.34375 C19.0312513,13.1294632 19.3510026,12.9001128 19.7226562,12.655692 C20.0943099,12.4112711 20.4960916,12.2170766 20.9280134,12.0731027 C21.3599352,11.9291287 21.7834801,11.8571429 22.1986607,11.8571429 C23.6986682,11.8571429 24.8738797,12.2723173 25.7243304,13.1026786 C26.574781,13.9330399 27,15.0848141 27,16.5580357 C27,18.0379538 26.2332666,19.5446352 24.6997768,21.078125 L18.4419643,27.1049107 C18.321428,27.225447 18.174108,27.2857143 18,27.2857143 Z" id="heart---fontawesome" fill="#FF374F"></path>
                                    </g>
                                </g>
                            </g>
                            <g id="Bug" transform="translate(0.000000, 147.761194)">
                                <g id="fab-copy">
                                    <g>
                                        <g id="button-bg">
                                            <use fill="black" fill-opacity="1" filter="url(#filter-8)" xlink:href="#path-7"></use>
                                            <use stroke="url(#linearGradient-1)" mask="url(#mask-9)" stroke-width="1" fill="#FFFFFF" fill-rule="evenodd" xlink:href="#path-7"></use>
                                            <use stroke="url(#linearGradient-2)" mask="url(#mask-10)" stroke-width="1" xlink:href="#path-7"></use>
                                        </g>
                                        <path d="M26.3928571,19.2142857 C26.3928571,19.3883937 26.3292417,19.5390619 26.2020089,19.6662946 C26.0747761,19.7935274 25.924108,19.8571429 25.75,19.8571429 L23.5,19.8571429 C23.5,21.0022379 23.2756719,21.9732103 22.8270089,22.7700893 L24.9162946,24.8694196 C25.0435274,24.9966524 25.1071429,25.1473206 25.1071429,25.3214286 C25.1071429,25.4955366 25.0435274,25.6462047 24.9162946,25.7734375 C24.7957583,25.9006703 24.6450902,25.9642857 24.4642857,25.9642857 C24.2834812,25.9642857 24.1328131,25.9006703 24.0122768,25.7734375 L22.0234375,23.7946429 C21.9899552,23.8281252 21.9397325,23.8716515 21.8727679,23.9252232 C21.8058032,23.9787949 21.6651796,24.0742181 21.4508929,24.2114955 C21.2366061,24.348773 21.0189743,24.4709816 20.7979911,24.578125 C20.5770078,24.6852684 20.302457,24.7823656 19.9743304,24.8694196 C19.6462037,24.9564736 19.3214302,25 19,25 L19,16 L17.7142857,16 L17.7142857,25 C17.3727661,25 17.0329258,24.9547996 16.6947545,24.8643973 C16.3565831,24.7739951 16.0652914,24.6635051 15.8208705,24.5329241 C15.5764497,24.4023431 15.3554697,24.271764 15.1579241,24.141183 C14.9603785,24.010602 14.8147326,23.9017861 14.7209821,23.8147321 L14.5703125,23.6741071 L12.7321429,25.7533482 C12.5982136,25.8939739 12.4375009,25.9642857 12.25,25.9642857 C12.0892849,25.9642857 11.9453131,25.9107148 11.8180804,25.8035714 C11.6908476,25.6830351 11.6222099,25.5340411 11.6121652,25.3565848 C11.6021205,25.1791286 11.6540173,25.0234382 11.7678571,24.8895089 L13.796875,22.609375 C13.4084802,21.8459783 13.2142857,20.9285768 13.2142857,19.8571429 L10.9642857,19.8571429 C10.7901777,19.8571429 10.6395096,19.7935274 10.5122768,19.6662946 C10.385044,19.5390619 10.3214286,19.3883937 10.3214286,19.2142857 C10.3214286,19.0401777 10.385044,18.8895096 10.5122768,18.7622768 C10.6395096,18.635044 10.7901777,18.5714286 10.9642857,18.5714286 L13.2142857,18.5714286 L13.2142857,15.6183036 C13.2142857,15.6183036 11.2857143,13.6026794 11.2857143,13.4285714 C11.2857143,13.4285714 11.3493297,13.1037953 11.4765625,12.9765625 C11.6037953,12.8493297 11.7544634,12.7857143 11.9285714,12.7857143 C12.1026794,12.7857143 12.2533476,12.8493297 12.3805804,12.9765625 L14.1183036,14.7142857 L22.5959821,14.7142857 L24.3337054,12.9765625 C24.4609381,12.8493297 24.6116063,12.7857143 24.7857143,12.7857143 C24.9598223,12.7857143 25.1104904,12.8493297 25.2377232,12.9765625 C25.364956,13.1037953 25.4285714,13.2544634 25.4285714,13.4285714 C25.4285714,13.6026794 25.364956,13.7533476 25.2377232,13.8805804 L23.5,15.6183036 L23.5,18.5714286 L25.75,18.5714286 C25.924108,18.5714286 26.0747761,18.635044 26.2020089,18.7622768 C26.3292417,18.8895096 26.3928571,19.0401777 26.3928571,19.2142857 Z M21.5714286,13.4285714 L15.1428571,13.4285714 C15.1428571,12.537942 15.455912,11.779579 16.0820313,11.1534598 C16.7081505,10.5273406 17.4665134,10.2142857 18.3571429,10.2142857 C19.2477723,10.2142857 20.0061353,10.5273406 20.6322545,11.1534598 C21.2583737,11.779579 21.5714286,12.537942 21.5714286,13.4285714 Z" id="bug---fontawesome" fill-opacity="0.87" fill="#000000"></path>
                                        <path d="M22.8270089,22.7700893 L22.0234375,23.7946429 C21.9899552,23.8281252 21.9397325,23.8716515 21.8727679,23.9252232 C21.8058032,23.9787949 21.6651796,24.0742181 21.4508929,24.2114955 C21.2366061,24.348773 21.0189743,24.4709816 20.7979911,24.578125 C20.5770078,24.6852684 20.302457,24.7823656 19.9743304,24.8694196 C19.6462037,24.9564736 19.3214302,25 19,25 L19,16 L17.7142857,16 L17.7142857,25 C17.3727661,25 17.0329258,24.9547996 16.6947545,24.8643973 C16.3565831,24.7739951 16.0652914,24.6635051 15.8208705,24.5329241 C15.5764497,24.4023431 15.3554697,24.271764 15.1579241,24.141183 C14.9603785,24.010602 14.8147326,23.9017861 14.7209821,23.8147321 L14.5703125,23.6741071 L13.796875,22.609375 C13.4084802,21.8459783 13.2142857,20.9285768 13.2142857,19.8571429 L13.2142857,15.5802851 L14.1183036,14.7142857 L22.5959821,14.7142857 L23.4641182,15.5802851 C23.5642073,16.7964907 23.4641182,18.0986596 23.4641182,19.8571429 C23.4641182,21.6156261 22.9657911,22.5235955 22.8270089,22.7700893 Z" id="Path" fill="#D0011B"></path>
                                    </g>
                                </g>
                            </g>
                            <g id="Idea" transform="translate(56.641791, 0.000000)">
                                <g id="fab-copy">
                                    <g>
                                        <g id="button-bg">
                                            <use fill="black" fill-opacity="1" filter="url(#filter-12)" xlink:href="#path-11"></use>
                                            <use stroke="url(#linearGradient-1)" mask="url(#mask-13)" stroke-width="1" fill="#FFFFFF" fill-rule="evenodd" xlink:href="#path-11"></use>
                                            <use stroke="url(#linearGradient-2)" mask="url(#mask-14)" stroke-width="1" xlink:href="#path-11"></use>
                                        </g>
                                        <path d="M18,22.9021234 C19.1061909,22.9021234 19.453182,21.0300749 20.3642908,19.3850143 C21.2753996,17.7399537 22.7469087,16.3339689 22.7469087,14.6677476 C22.7469087,11.330406 20.209139,11.3704579 18,11.3704579 C15.790861,11.3704579 13.4725826,12.734751 13.4725826,14.6677476 C13.4725826,15.6699939 14.911691,17.5212676 15.8198058,19.3850143 C16.7279207,21.248761 16.9362854,22.9021234 18,22.9021234 Z" id="Oval-8" fill="#F8E81C"></path>
                                        <path d="M20.3928571,15.3571429 C20.3928571,15.4441969 20.3610494,15.5195309 20.297433,15.5831473 C20.2338166,15.6467637 20.1584826,15.6785714 20.0714286,15.6785714 C19.9843746,15.6785714 19.9090405,15.6467637 19.8454241,15.5831473 C19.7818077,15.5195309 19.75,15.4441969 19.75,15.3571429 C19.75,15.0491056 19.5691982,14.8113848 19.2075893,14.6439732 C18.8459803,14.4765617 18.4910732,14.3928571 18.1428571,14.3928571 C18.0558031,14.3928571 17.9804691,14.3610494 17.9168527,14.297433 C17.8532363,14.2338166 17.8214286,14.1584826 17.8214286,14.0714286 C17.8214286,13.9843746 17.8532363,13.9090405 17.9168527,13.8454241 C17.9804691,13.7818077 18.0558031,13.75 18.1428571,13.75 C18.4776802,13.75 18.8108242,13.8035709 19.1422991,13.9107143 C19.473774,14.0178577 19.7650657,14.1986594 20.016183,14.453125 C20.2673004,14.7075906 20.3928571,15.0089268 20.3928571,15.3571429 Z M22,15.3571429 C22,14.8749976 21.8844878,14.4263414 21.6534598,14.0111607 C21.4224319,13.5959801 21.1210956,13.2561397 20.749442,12.9916295 C20.3777883,12.7271192 19.9659621,12.519532 19.5139509,12.3688616 C19.0619397,12.2181912 18.604913,12.1428571 18.1428571,12.1428571 C17.6808013,12.1428571 17.2237746,12.2181912 16.7717634,12.3688616 C16.3197522,12.519532 15.907926,12.7271192 15.5362723,12.9916295 C15.1646187,13.2561397 14.8632824,13.5959801 14.6322545,14.0111607 C14.4012265,14.4263414 14.2857143,14.8749976 14.2857143,15.3571429 C14.2857143,16.0334855 14.5133906,16.6361581 14.96875,17.1651786 C15.0357146,17.2388397 15.1378341,17.3493296 15.2751116,17.4966518 C15.4123891,17.643974 15.5145086,17.7544639 15.5814732,17.828125 C16.4386204,18.8526837 16.9107139,19.8504416 16.9977679,20.8214286 L19.2879464,20.8214286 C19.3750004,19.8504416 19.8470939,18.8526837 20.7042411,17.828125 C20.7712057,17.7544639 20.8733252,17.643974 21.0106027,17.4966518 C21.1478802,17.3493296 21.2499997,17.2388397 21.3169643,17.1651786 C21.7723237,16.6361581 22,16.0334855 22,15.3571429 Z M23.2857143,15.3571429 C23.2857143,16.3950945 22.9408517,17.2924069 22.2511161,18.0491071 C21.9497753,18.3772338 21.7003358,18.6685255 21.5027902,18.9229911 C21.3052445,19.1774566 21.1060278,19.4972079 20.9051339,19.8822545 C20.7042401,20.267301 20.5904019,20.6272305 20.5636161,20.9620536 C20.8783498,21.1495545 21.0357143,21.4241053 21.0357143,21.7857143 C21.0357143,22.0334834 20.9520098,22.247767 20.7845982,22.4285714 C20.9520098,22.6093759 21.0357143,22.8236595 21.0357143,23.0714286 C21.0357143,23.4196446 20.8850461,23.6908472 20.5837054,23.8850446 C20.6707594,24.0390633 20.7142857,24.1964278 20.7142857,24.3571429 C20.7142857,24.6651801 20.608818,24.9029009 20.3978795,25.0703125 C20.1869409,25.2377241 19.9274569,25.3214286 19.6194196,25.3214286 C19.4854904,25.6160729 19.2845996,25.8504456 19.0167411,26.0245536 C18.7488826,26.1986616 18.4575909,26.2857143 18.1428571,26.2857143 C17.8281234,26.2857143 17.5368317,26.1986616 17.2689732,26.0245536 C17.0011147,25.8504456 16.8002239,25.6160729 16.6662946,25.3214286 C16.3582574,25.3214286 16.0987734,25.2377241 15.8878348,25.0703125 C15.6768963,24.9029009 15.5714286,24.6651801 15.5714286,24.3571429 C15.5714286,24.1964278 15.6149549,24.0390633 15.7020089,23.8850446 C15.4006681,23.6908472 15.25,23.4196446 15.25,23.0714286 C15.25,22.8236595 15.3337045,22.6093759 15.5011161,22.4285714 C15.3337045,22.247767 15.25,22.0334834 15.25,21.7857143 C15.25,21.4241053 15.4073645,21.1495545 15.7220982,20.9620536 C15.6953124,20.6272305 15.5814742,20.267301 15.3805804,19.8822545 C15.1796865,19.4972079 14.9804697,19.1774566 14.7829241,18.9229911 C14.5853785,18.6685255 14.335939,18.3772338 14.0345982,18.0491071 C13.3448626,17.2924069 13,16.3950945 13,15.3571429 C13,14.6941931 13.148994,14.0764538 13.4469866,13.5039063 C13.7449792,12.9313587 14.1367163,12.4559171 14.6222098,12.077567 C15.1077033,11.6992169 15.656805,11.4012288 16.2695312,11.1835938 C16.8822575,10.9659587 17.5066932,10.8571429 18.1428571,10.8571429 C18.779021,10.8571429 19.4034568,10.9659587 20.016183,11.1835938 C20.6289093,11.4012288 21.178011,11.6992169 21.6635045,12.077567 C22.148998,12.4559171 22.5407351,12.9313587 22.8387277,13.5039063 C23.1367202,14.0764538 23.2857143,14.6941931 23.2857143,15.3571429 Z" id="lightbulb-o---fontawesome" fill-opacity="0.87" fill="#000000"></path>
                                    </g>
                                </g>
                            </g>
                            <g id="Confused" transform="translate(286.492537, 0.000000)">
                                <g id="fab-copy">
                                    <g>
                                        <g id="button-bg">
                                            <use fill="black" fill-opacity="1" filter="url(#filter-16)" xlink:href="#path-15"></use>
                                            <use stroke="url(#linearGradient-1)" mask="url(#mask-17)" stroke-width="1" fill="#FFFFFF" fill-rule="evenodd" xlink:href="#path-15"></use>
                                            <use stroke="url(#linearGradient-2)" mask="url(#mask-18)" stroke-width="1" xlink:href="#path-15"></use>
                                        </g>
                                        <path d="M26.3476562,14.6318359 L26.3476562,14.2705078 C26.3476562,13.9580063 26.4143874,13.6861991 26.5478516,13.4550781 C26.6813158,13.2239572 26.925454,12.9781914 27.2802734,12.7177734 C27.622072,12.4736316 27.8474929,12.2750659 27.956543,12.1220703 C28.065593,11.9690748 28.1201172,11.798178 28.1201172,11.609375 C28.1201172,11.3977854 28.041993,11.2366542 27.8857422,11.1259766 C27.7294914,11.0152989 27.5113946,10.9599609 27.2314453,10.9599609 C26.7431616,10.9599609 26.1865266,11.1194646 25.5615234,11.4384766 L25.0292969,10.3691406 C25.755212,9.96223755 26.525061,9.75878906 27.3388672,9.75878906 C28.0094435,9.75878906 28.5424785,9.91992026 28.9379883,10.2421875 C29.3334981,10.5644547 29.53125,10.9941379 29.53125,11.53125 C29.53125,11.8893247 29.4498706,12.1985664 29.2871094,12.4589844 C29.1243481,12.7194023 28.8151064,13.0123682 28.359375,13.3378906 C28.0468734,13.5690116 27.8491215,13.7447911 27.7661133,13.8652344 C27.6831051,13.9856777 27.6416016,14.1435537 27.6416016,14.3388672 L27.6416016,14.6318359 L26.3476562,14.6318359 Z M26.1914062,16.3017578 C26.1914062,16.0283189 26.2646477,15.8216153 26.4111328,15.6816406 C26.5576179,15.541666 26.7708319,15.4716797 27.0507812,15.4716797 C27.3209649,15.4716797 27.5301099,15.5432936 27.6782227,15.6865234 C27.8263354,15.8297533 27.9003906,16.0348294 27.9003906,16.3017578 C27.9003906,16.5589206 27.8255216,16.7615552 27.6757812,16.909668 C27.5260409,17.0577807 27.3177097,17.1318359 27.0507812,17.1318359 C26.7773424,17.1318359 26.565756,17.0594083 26.4160156,16.9145508 C26.2662753,16.7696933 26.1914062,16.565431 26.1914062,16.3017578 Z" id="?" fill-opacity="0.87" fill="#000000"></path>
                                        <circle id="Oval" fill="#F8E81C" cx="18" cy="20" r="7"></circle>
                                        <path d="M21.390625,22.9162946 C21.4441967,23.0837062 21.430804,23.246093 21.3504464,23.4034598 C21.2700889,23.5608267 21.1462062,23.6662944 20.9787946,23.7198661 C20.8113831,23.7734378 20.6473222,23.760045 20.4866071,23.6796875 C20.3258921,23.59933 20.2187503,23.4720991 20.1651786,23.2979911 C19.997767,22.7622741 19.6880603,22.3286847 19.2360491,21.9972098 C18.7840379,21.6657349 18.2767885,21.5 17.7142857,21.5 C17.1517829,21.5 16.6445335,21.6657349 16.1925223,21.9972098 C15.7405111,22.3286847 15.4308044,22.7622741 15.2633929,23.2979911 C15.2098212,23.4720991 15.1043535,23.59933 14.9469866,23.6796875 C14.7896197,23.760045 14.627233,23.7734378 14.4598214,23.7198661 C14.2857134,23.6662944 14.1584825,23.5608267 14.078125,23.4034598 C13.9977675,23.246093 13.9843747,23.0837062 14.0379464,22.9162946 C14.2857155,22.1060227 14.7477645,21.4531275 15.4241071,20.9575893 C16.1004498,20.4620511 16.863835,20.2142857 17.7142857,20.2142857 C18.5647364,20.2142857 19.3281216,20.4620511 20.0044643,20.9575893 C20.680807,21.4531275 21.1428559,22.1060227 21.390625,22.9162946 Z M16.4285714,17 C16.4285714,17.3549125 16.3030146,17.6579229 16.0518973,17.9090402 C15.80078,18.1601575 15.4977696,18.2857143 15.1428571,18.2857143 C14.7879447,18.2857143 14.4849343,18.1601575 14.233817,17.9090402 C13.9826996,17.6579229 13.8571429,17.3549125 13.8571429,17 C13.8571429,16.6450875 13.9826996,16.3420771 14.233817,16.0909598 C14.4849343,15.8398425 14.7879447,15.7142857 15.1428571,15.7142857 C15.4977696,15.7142857 15.80078,15.8398425 16.0518973,16.0909598 C16.3030146,16.3420771 16.4285714,16.6450875 16.4285714,17 Z M21.5714286,17 C21.5714286,17.3549125 21.4458718,17.6579229 21.1947545,17.9090402 C20.9436371,18.1601575 20.6406268,18.2857143 20.2857143,18.2857143 C19.9308018,18.2857143 19.6277914,18.1601575 19.3766741,17.9090402 C19.1255568,17.6579229 19,17.3549125 19,17 C19,16.6450875 19.1255568,16.3420771 19.3766741,16.0909598 C19.6277914,15.8398425 19.9308018,15.7142857 20.2857143,15.7142857 C20.6406268,15.7142857 20.9436371,15.8398425 21.1947545,16.0909598 C21.4458718,16.3420771 21.5714286,16.6450875 21.5714286,17 Z M24.1428571,19.5714286 C24.1428571,18.7008885 23.9720999,17.8688656 23.6305804,17.0753348 C23.2890608,16.2818041 22.8320341,15.5987752 22.2594866,15.0262277 C21.6869391,14.4536802 21.0039102,13.9966535 20.2103795,13.6551339 C19.4168487,13.3136144 18.5848258,13.1428571 17.7142857,13.1428571 C16.8437456,13.1428571 16.0117227,13.3136144 15.218192,13.6551339 C14.4246612,13.9966535 13.7416323,14.4536802 13.1690848,15.0262277 C12.5965373,15.5987752 12.1395106,16.2818041 11.7979911,17.0753348 C11.4564715,17.8688656 11.2857143,18.7008885 11.2857143,19.5714286 C11.2857143,20.4419686 11.4564715,21.2739916 11.7979911,22.0675223 C12.1395106,22.8610531 12.5965373,23.544082 13.1690848,24.1166295 C13.7416323,24.689177 14.4246612,25.1462036 15.218192,25.4877232 C16.0117227,25.8292428 16.8437456,26 17.7142857,26 C18.5848258,26 19.4168487,25.8292428 20.2103795,25.4877232 C21.0039102,25.1462036 21.6869391,24.689177 22.2594866,24.1166295 C22.8320341,23.544082 23.2890608,22.8610531 23.6305804,22.0675223 C23.9720999,21.2739916 24.1428571,20.4419686 24.1428571,19.5714286 Z M25.4285714,19.5714286 C25.4285714,20.9709891 25.0837088,22.2617128 24.3939732,23.4436384 C23.7042376,24.6255639 22.7684211,25.5613805 21.5864955,26.2511161 C20.40457,26.9408517 19.1138463,27.2857143 17.7142857,27.2857143 C16.3147251,27.2857143 15.0240014,26.9408517 13.8420759,26.2511161 C12.6601503,25.5613805 11.7243338,24.6255639 11.0345982,23.4436384 C10.3448626,22.2617128 10,20.9709891 10,19.5714286 C10,18.171868 10.3448626,16.8811443 11.0345982,15.6992188 C11.7243338,14.5172932 12.6601503,13.5814767 13.8420759,12.8917411 C15.0240014,12.2020055 16.3147251,11.8571429 17.7142857,11.8571429 C19.1138463,11.8571429 20.40457,12.2020055 21.5864955,12.8917411 C22.7684211,13.5814767 23.7042376,14.5172932 24.3939732,15.6992188 C25.0837088,16.8811443 25.4285714,18.171868 25.4285714,19.5714286 Z" id="frown-o---fontawesome" fill-opacity="0.87" fill="#000000"></path>
                                    </g>
                                </g>
                            </g>
                        </g>
                        <g id="Beta-Fish" transform="translate(60.746269, 32.014925)">
                            <g id="Bowl" filter="url(#filter-19)" transform="translate(18.000000, 19.000000)">
                                <use id="Oval-2" stroke-opacity="0.12" stroke="#000000" mask="url(#mask-21)" fill="#B6DBFF" xlink:href="#path-20"></use>
                                <path d="M32.390554,9.19125211 L51.7972542,9.15795841 C51.9024389,9.20285836 52.0086175,9.24793218 52.115842,9.2931509 C58.7352451,12.0846867 65.0614583,12.5451327 72.0888349,9.24199024 C72.1739199,9.20199696 72.258355,9.16223455 72.3421546,9.12271203 L58.6348591,9.14622797 L87.9938989,9.14622797 C87.9724729,9.129398 87.9510897,9.11264551 87.9297491,9.0959703 L88.1845985,9.09553309 C85.2695234,5.99125056 81.970141,3.25209942 78.3624058,0.954034091 L24.2393025,0.576616665 C20.3462799,2.98089378 16.8008501,5.89406156 13.6958086,9.2233244 L14.2412417,9.22238866 C15.1474335,9.85826537 21.8586841,14.1446413 31.9723136,9.38628955 C32.1130981,9.32005197 32.2525028,9.25504485 32.3905541,9.19125348 L14.2412417,9.22238866 C14.1716187,9.17353405 14.1362624,9.14622797 14.1362624,9.14622797 L58.6348591,9.14622797 L51.7972542,9.15795841 C45.4928988,6.46683412 42.7587418,4.40027422 32.3905591,9.19125113 Z M72.3421545,9.12271204 L87.9297491,9.09597031 C81.7683529,4.28155045 79.1559692,5.90910371 72.3421546,9.12271203 Z" id="Combined-Shape" fill="#DDF3F8"></path>
                            </g>
                            <g id="Fish" filter="url(#filter-22)" transform="translate(33.000000, 38.000000)">
                                <path d="M0.275085185,22.7782119 C0.867491817,20.2359855 2.17573225,17.8237363 4.19982168,15.5414274 C7.06145836,12.3147227 10.9225562,9.75117166 15.7832309,7.85069729 C17.5518463,7.15918668 19.3684896,6.59348521 21.2331684,6.15359151 L31.6298819,0.579038168 C33.0280766,-0.17065173 34.1577569,0.0043410085 34.1577569,0.967394907 L34.1577569,5.07581109 C38.7340438,5.33519003 43.0561466,6.26014653 47.1241572,7.85069729 C51.984832,9.75117166 55.8459298,12.3147227 58.7075664,15.5414274 C60.9289492,18.0461989 62.2881304,20.7074766 62.78513,23.5253092 L73.6298819,10.181627 C75.0280766,8.46124963 76.1577569,8.8628204 76.1577569,11.0728224 L76.1577569,27.1430856 L76.1577569,42.5965711 C76.1577569,44.8095195 75.0259887,45.2130639 73.6298819,43.4952556 L62.6203378,29.9488085 C62.5736428,29.8913537 62.5285096,29.8327142 62.484938,29.7729693 C62.0083682,31.4831399 61.2010814,33.1448105 60.0630718,34.7579984 C58.1051098,37.5335113 55.3462049,39.9329951 51.7862741,41.9565217 L48.2126691,44.0073831 L49.3217189,47.9450369 C49.9789369,50.4334278 50.9373654,52.7850587 52.1970333,55 C48.0346526,53.2772678 44.2693977,50.9393093 40.9011555,47.9860541 L39.134891,46.4273995 L36.7935636,46.6735029 C34.9040618,46.8922625 33.1241231,47.0016407 31.4536941,47.0016407 C25.8673411,47.0016407 20.6439056,46.0514178 15.7832309,44.1509434 C10.9225562,42.250469 7.06145836,39.686918 4.19982168,36.4602133 C3.20138772,35.334406 2.37713474,34.1769815 1.7270609,32.9879354 L6.95306524,27.3731491 L0.275085185,22.7782119 Z" id="Combined-Shape" fill="url(#linearGradient-23)"></path>
                                <g id="Dots" transform="translate(17.000000, 25.000000)" fill="#FFFFFF">
                                    <circle id="Oval" cx="3" cy="3" r="3"></circle>
                                    <circle id="Oval-Copy" cx="15" cy="3" r="3"></circle>
                                    <circle id="Oval-Copy-2" cx="27" cy="3" r="3"></circle>
                                </g>
                            </g>
                        </g>
                    </g>
                    <g id="Lines" transform="translate(57.000000, 55.000000)" stroke="#000000" stroke-opacity="0.54" stroke-width="2" stroke-linecap="square">
                        <path d="M0.958735144,112.7935 L27.5,108.5" id="Line"></path>
                        <path d="M238.958735,112.7935 L265.5,108.5" id="Line-Copy" transform="translate(252.229368, 110.646750) scale(-1, 1) translate(-252.229368, -110.646750) "></path>
                        <path d="M215.5,0.5 L232.5,28.5" id="Line-Copy-2" transform="translate(224.000000, 14.500000) scale(-1, 1) translate(-224.000000, -14.500000) "></path>
                        <path d="M35.5,0.5 L52.5,28.5" id="Line-Copy-3"></path>
                    </g>
                </g>
            </g>
        </g>
    </g>
</svg>